# xmcd
#
# Track frame offsets: 
#        150
#        19827
#        43590
#        65725
#        87215
#        102207
#        121675
#        139175
#        174540
#
# Disc length: 2333 seconds
#
# Revision: 1
# Processed by: cddbd v1.5.2PL0 Copyright (c) Steve Scherf et al.
# Submitted via: ExactAudioCopy v1.0b3
#
DISCID=73091b09
DTITLE=諫山実生 - ハナコトバ～花心詩～
DYEAR=2003
DGENRE=JPop
TTITLE0=JOURNEY OF LIFE(ピアノ アレンジ)
TTITLE1=朝陽の中で微笑んで
TTITLE2=ふたり
TTITLE3=郷里(ふるさと)
TTITLE4=竹田の子守唄
TTITLE5=あやとり
TTITLE6=手紙(ピアノ アレンジ)
TTITLE7=秋の気配
TTITLE8=CCCD
EXTD=YEAR: 2003
EXTT0=
EXTT1=
EXTT2=
EXTT3=
EXTT4=
EXTT5=
EXTT6=
EXTT7=
EXTT8=
PLAYORDER=
